<?xml version="1.0" encoding="utf-8"?>
<!-- Generator: Adobe Illustrator 24.0.2, SVG Export Plug-In . SVG Version: 6.00 Build 0)  -->
<svg version="1.1" xmlns="http://www.w3.org/2000/svg" xmlns:xlink="http://www.w3.org/1999/xlink" x="0px" y="0px"
	 viewBox="0 0 49.7 49.7" style="enable-background:new 0 0 49.7 49.7;" xml:space="preserve">
<style type="text/css">
	.st0{display:none;}
	.st1{display:inline;}
	.st2{fill:#FFFFFF;}
	.st3{display:inline;fill:#CECECE;}
	.st4{fill:#DD0040;}
</style>
<g id="Layer_2" class="st0">
	<rect class="st1" width="49.7" height="49.7"/>
</g>
<g id="Layer_1">
	<circle class="st2" cx="24.9" cy="24.9" r="23.7"/>
	<title>Facebook</title>
	<title>Instagram</title>
</g>
<g id="Layer_3" class="st0">
	<circle class="st3" cx="24.9" cy="24.9" r="17"/>
</g>
<g id="Layer_4">
	<path class="st4" d="M41.6,25c0-9.2-7.5-16.7-16.7-16.7S8.2,15.7,8.2,25c0,8.3,6.1,15.3,14.1,16.5V29.8H18V25h4.2v-3.7
		c0-4.2,2.5-6.5,6.3-6.5c1.8,0,3.7,0.3,3.7,0.3v4.1h-2.1c-2.1,0-2.7,1.3-2.7,2.6V25h4.6l-0.7,4.8h-3.9v11.7
		C35.5,40.2,41.6,33.3,41.6,25z"/>
</g>
</svg>
