<?xml version="1.0" encoding="utf-8"?>
<!-- Generator: Adobe Illustrator 24.0.2, SVG Export Plug-In . SVG Version: 6.00 Build 0)  -->
<svg version="1.1" xmlns="http://www.w3.org/2000/svg" xmlns:xlink="http://www.w3.org/1999/xlink" x="0px" y="0px"
	 viewBox="0 0 49.7 49.7" style="enable-background:new 0 0 49.7 49.7;" xml:space="preserve">
<style type="text/css">
	.st0{display:none;}
	.st1{display:inline;}
	.st2{fill:#FFFFFF;}
	.st3{display:inline;fill:#CECECE;}
	.st4{fill:#DD0040;}
</style>
<g id="Layer_2" class="st0">
	<rect class="st1" width="49.7" height="49.7"/>
</g>
<g id="Layer_1">
	<circle class="st2" cx="24.9" cy="24.9" r="23.7"/>
	<title>Facebook</title>
	<title>Instagram</title>
</g>
<g id="Layer_3" class="st0">
	<circle class="st3" cx="24.9" cy="24.9" r="17"/>
</g>
<g id="Layer_4">
	<path class="st4" d="M24.9,10.5c-3.9,0-4.4,0-5.9,0.1c-1.5,0.1-2.6,0.3-3.5,0.7c-0.9,0.4-1.7,0.9-2.5,1.7c-0.8,0.8-1.3,1.6-1.7,2.5
		c-0.4,0.9-0.6,2-0.7,3.5c-0.1,1.5-0.1,2-0.1,5.9s0,4.4,0.1,5.9c0.1,1.5,0.3,2.6,0.7,3.5c0.4,0.9,0.9,1.7,1.7,2.5
		c0.8,0.8,1.6,1.3,2.5,1.7c0.9,0.4,2,0.6,3.5,0.7c1.5,0.1,2,0.1,5.9,0.1s4.4,0,5.9-0.1c1.5-0.1,2.6-0.3,3.5-0.7
		c0.9-0.4,1.7-0.9,2.5-1.7c0.8-0.8,1.3-1.6,1.7-2.5c0.4-0.9,0.6-2,0.7-3.5c0.1-1.5,0.1-2,0.1-5.9s0-4.4-0.1-5.9
		c-0.1-1.5-0.3-2.6-0.7-3.5c-0.4-0.9-0.9-1.7-1.7-2.5c-0.8-0.8-1.6-1.3-2.5-1.7c-0.9-0.4-2-0.6-3.5-0.7
		C29.3,10.5,28.8,10.5,24.9,10.5z M24.9,13.1c3.8,0,4.3,0,5.8,0.1c1.4,0.1,2.2,0.3,2.7,0.5c0.7,0.3,1.2,0.6,1.7,1.1
		c0.5,0.5,0.8,1,1.1,1.7c0.2,0.5,0.4,1.3,0.5,2.7c0.1,1.5,0.1,2,0.1,5.8s0,4.3-0.1,5.8c-0.1,1.4-0.3,2.2-0.5,2.7
		C35.8,34,35.5,34.5,35,35c-0.5,0.5-1,0.8-1.7,1.1c-0.5,0.2-1.3,0.4-2.7,0.5c-1.5,0.1-2,0.1-5.8,0.1c-3.8,0-4.3,0-5.8-0.1
		c-1.4-0.1-2.2-0.3-2.7-0.5c-0.7-0.3-1.2-0.6-1.7-1.1c-0.5-0.5-0.8-1-1.1-1.7c-0.2-0.5-0.4-1.3-0.5-2.7c-0.1-1.5-0.1-2-0.1-5.8
		c0-3.8,0-4.3,0.1-5.8c0.1-1.4,0.3-2.2,0.5-2.7c0.3-0.7,0.6-1.2,1.1-1.7c0.5-0.5,1-0.8,1.7-1.1c0.5-0.2,1.3-0.4,2.7-0.5
		C20.5,13.1,21,13,24.9,13.1C24.8,13,24.9,13.1,24.9,13.1z M24.9,17.5c-4.1,0-7.4,3.3-7.4,7.4c0,4.1,3.3,7.4,7.4,7.4
		c4.1,0,7.4-3.3,7.4-7.4C32.2,20.8,28.9,17.5,24.9,17.5z M24.9,29.7c-2.6,0-4.8-2.1-4.8-4.8s2.1-4.8,4.8-4.8s4.8,2.1,4.8,4.8
		S27.5,29.7,24.9,29.7z M34.3,17.2c0,1-0.8,1.7-1.7,1.7c-1,0-1.7-0.8-1.7-1.7s0.8-1.7,1.7-1.7C33.5,15.5,34.3,16.2,34.3,17.2z"/>
</g>
</svg>
