<?xml version="1.0" encoding="utf-8"?>
<!-- Generator: Adobe Illustrator 24.0.2, SVG Export Plug-In . SVG Version: 6.00 Build 0)  -->
<svg version="1.1" xmlns="http://www.w3.org/2000/svg" xmlns:xlink="http://www.w3.org/1999/xlink" x="0px" y="0px"
	 viewBox="0 0 49.7 49.7" style="enable-background:new 0 0 49.7 49.7;" xml:space="preserve">
<style type="text/css">
	.st0{display:none;}
	.st1{display:inline;}
	.st2{fill:#FFFFFF;}
	.st3{display:inline;fill:#CECECE;}
	.st4{fill:#DD0040;}
</style>
<g id="Layer_2" class="st0">
	<rect class="st1" width="49.7" height="49.7"/>
</g>
<g id="Layer_1">
	<circle class="st2" cx="24.9" cy="24.9" r="23.7"/>
	<title>Facebook</title>
	<title>Instagram</title>
</g>
<g id="Layer_3" class="st0">
	<circle class="st3" cx="24.9" cy="24.9" r="17"/>
</g>
<g id="Layer_4">
	<path class="st4" d="M25.6,9.1c1.7,0,3.4,0,5.1,0c0.1,2,0.8,4.1,2.3,5.5c1.5,1.5,3.5,2.1,5.6,2.3v5.3c-1.9-0.1-3.8-0.5-5.5-1.3
		c-0.7-0.3-1.4-0.8-2.1-1.2c0,3.8,0,7.7,0,11.5c-0.1,1.8-0.7,3.7-1.8,5.2c-1.7,2.5-4.7,4.2-7.8,4.2c-1.9,0.1-3.8-0.4-5.4-1.4
		c-2.7-1.6-4.5-4.4-4.8-7.5c0-0.7,0-1.3,0-2c0.2-2.5,1.5-4.9,3.4-6.5c2.2-1.9,5.2-2.8,8.1-2.3c0,1.9-0.1,3.9-0.1,5.8
		c-1.3-0.4-2.8-0.3-4,0.5c-0.8,0.5-1.5,1.4-1.8,2.3c-0.3,0.7-0.2,1.4-0.2,2.1c0.3,2.2,2.4,4,4.6,3.8c1.5,0,2.9-0.9,3.6-2.1
		c0.2-0.4,0.5-0.9,0.5-1.4c0.1-2.3,0.1-4.7,0.1-7C25.5,19.7,25.5,14.4,25.6,9.1z"/>
</g>
</svg>
